<svg viewBox="0 0 32 32" xmlns="http://www.w3.org/2000/svg">
  <defs>
    <linearGradient id="shieldGrad" x1="0%" y1="0%" x2="100%" y2="100%">
      <stop offset="0%" style="stop-color:#FFB347"/>
      <stop offset="50%" style="stop-color:#FF9933"/>
      <stop offset="100%" style="stop-color:#FF6600"/>
    </linearGradient>
  </defs>

  <!-- Shield shape -->
  <path d="M16 2 L28 7 L28 15 C28 22 23 28 16 30 C9 28 4 22 4 15 L4 7 Z"
        fill="url(#shieldGrad)" />

  <!-- Inner shield - dark -->
  <path d="M16 5 L25 9 L25 15 C25 20 21 25 16 27 C11 25 7 20 7 15 L7 9 Z"
        fill="#1F2937" />

  <!-- Simplified ₹ symbol - brighter -->
  <g fill="#FF9933">
    <rect x="10" y="10" width="12" height="2" rx="0.5"/>
    <rect x="10" y="14" width="12" height="2" rx="0.5"/>
    <path d="M12 16 L12 19 L16 24 L18 24 L14 19 L14 16 Z"/>
  </g>
</svg>
