<svg viewBox="0 0 200 200" xmlns="http://www.w3.org/2000/svg">
  <defs>
    <linearGradient id="shieldGrad" x1="0%" y1="0%" x2="100%" y2="100%">
      <stop offset="0%" style="stop-color:#FFB347"/>
      <stop offset="50%" style="stop-color:#FF9933"/>
      <stop offset="100%" style="stop-color:#FF6600"/>
    </linearGradient>
  </defs>

  <!-- Shield shape -->
  <path d="M100 10 L180 50 L180 110 C180 150 145 185 100 195 C55 185 20 150 20 110 L20 50 Z"
        fill="url(#shieldGrad)" />

  <!-- Inner shield -->
  <path d="M100 25 L165 58 L165 108 C165 140 137 170 100 178 C63 170 35 140 35 108 L35 58 Z"
        fill="#FFF9F5" />

  <!-- Rupee symbol ₹ -->
  <g fill="#FF6600" transform="translate(60, 55)">
    <!-- Top horizontal line -->
    <rect x="0" y="0" width="80" height="10" rx="2"/>
    <!-- Second horizontal line -->
    <rect x="0" y="20" width="80" height="10" rx="2"/>
    <!-- Vertical stem -->
    <path d="M15 30 L15 55 L50 100 L65 100 L30 55 L30 30 Z"/>
    <!-- Curve of ₹ -->
    <path d="M30 0 C65 0 75 20 75 30 L60 30 C60 25 55 15 30 15 L30 0 Z"/>
  </g>
</svg>
