<svg viewBox="0 0 32 32" xmlns="http://www.w3.org/2000/svg">
  <!-- Shield shape -->
  <path d="M16 2 L28 7 L28 15 C28 22 23 28 16 30 C9 28 4 22 4 15 L4 7 Z"
        fill="black" />

  <!-- Inner shield -->
  <path d="M16 5 L25 9 L25 15 C25 20 21 25 16 27 C11 25 7 20 7 15 L7 9 Z"
        fill="white" />

  <!-- Simplified ₹ symbol -->
  <g fill="black">
    <rect x="10" y="10" width="12" height="2" rx="0.5"/>
    <rect x="10" y="14" width="12" height="2" rx="0.5"/>
    <path d="M12 16 L12 19 L16 24 L18 24 L14 19 L14 16 Z"/>
  </g>
</svg>
